<?xml version="1.0" encoding="utf-8"?>
<!-- Generator: Adobe Illustrator 19.2.1, SVG Export Plug-In . SVG Version: 6.00 Build 0)  -->
<svg version="1.1" id="Layer_1" xmlns="http://www.w3.org/2000/svg" xmlns:xlink="http://www.w3.org/1999/xlink" x="0px" y="0px"
	 viewBox="0 0 250 250" style="enable-background:new 0 0 250 250;" xml:space="preserve">
<style type="text/css">
	.st0{fill:#5B5B5B;}
	.st1{fill:#7F7F7F;}
	.st2{fill:#FFFFFF;}
	.st3{fill:#A98C48;}
	.st4{fill:#68836A;}
	.st5{fill:#AA8D43;}
	.st6{font-family:'ArialMT';}
	.st7{font-size:11px;}
	.st8{fill:#A88B49;}
	.st9{fill:none;stroke:#FFFFFF;stroke-width:2;}
	.st10{fill:#FFFFFF;stroke:#FFFFFF;}
	.st11{fill:none;stroke:#FFFFFF;stroke-width:1.5;}
</style>
<g id="_KC_-_7">
	<g id="Compass_copy_5">
		<g id="Compass_8_">
			<polygon class="st0" points="232.8,206.4 225.7,200.5 221.8,193.5 228.2,198.4 			"/>
			<path class="st1" d="M237.2,211.2c-6.4,5.6-16.3,4.9-21.9-1.5c-5.6-6.4-4.9-16.3,1.5-21.9c6.4-5.6,16.3-4.9,21.9,1.5
				C244.3,195.8,243.7,205.6,237.2,211.2z M217.7,188.8c-5.9,5.1-6.5,14.1-1.4,20c5.1,5.9,14.1,6.5,20,1.4c5.9-5.1,6.5-14.1,1.4-20
				C232.6,184.3,223.6,183.7,217.7,188.8z"/>
			
				<ellipse transform="matrix(6.873409e-02 -0.9976 0.9976 6.873409e-02 12.3665 412.2869)" class="st0" cx="227" cy="199.5" rx="3" ry="3"/>
			<g>
				<path class="st0" d="M220,193.3l-2-2.3l0.4-0.3l2.5,0.7l0,0l-1.4-1.6l0.4-0.3l2,2.3l-0.4,0.3l-2.5-0.7l0,0l1.4,1.6L220,193.3z"
					/>
			</g>
			
				<ellipse transform="matrix(6.871367e-02 -0.9976 0.9976 6.871367e-02 12.3709 412.2913)" class="st2" cx="227" cy="199.5" rx="1.6" ry="1.6"/>
		</g>
	</g>
	<path class="st3" d="M126.2,229.4c-18.1,0-28.1-10.7-28.1-10.7l-0.2-3.9l-16.3-19.5h-4.2l-21.6-36.7L27,108.6l-1.5-4.2
		c0,0-2-13.3,4.4-21.9c8.4-11.3,60.8-49,83.7-52.2c0,0,12-3.9,25.6-0.5c13.6,3.4,71.5,41.2,77.5,47.6c5.5,5.8,10.8,21.2,4.9,36
		s-19.7,32-21,37.4c-1.3,5.4-24.1,43.2-26.9,44.3c-2.8,1.1-3.9,0-3.9,0L153.5,214l0.2,4.4C153.6,218.5,144.3,229.4,126.2,229.4z"/>
	<path class="st4" d="M126.1,220.6c-16.4,0-25.5-9.7-25.5-9.7l-0.2-3.6l-14.7-17.6h-3.8l-19.6-33.3l-26.5-45.7l-1.3-3.8
		c0,0-1.8-12.1,4-19.9c7.6-10.3,55.4-45.1,76.2-48c0,0,10.9-3.6,23.2-0.4c12.4,3.1,65.2,37.9,70.7,43.7c5,5.3,9.8,19.2,4.5,32.6
		c-5.4,13.4-18.1,29.6-19.3,34.5c-1.2,4.9-21.9,39.2-24.4,40.2c-2.5,1-3.6,0-3.6,0l-14.9,17.1l0.2,4
		C151,210.6,142.5,220.6,126.1,220.6z"/>
	<path id="Infield_sand_1_" class="st5" d="M165.4,168c-0.2,0.2-7-30.8-40.3-30.5c-35.7,0.2-39.8,28-40.3,30.7l0,0l10.7,10.9
		l0.3,3.1l4.2,3.9l2.5,0.1l17.2,15.5c-0.7,1-1.2,2.3-1.1,3.7c0,1.3,0.4,2.4,1.1,3.4c0,0,0,0,0,0.1c1.2,1.8,3.4,3,5.8,3
		c3.8,0,6.8-3,6.8-6.6c0-1.5,0.1-1.9-0.8-3l16.2-16l3.1-0.8l3.6-3.6l0.8-3.5l10.2-10.2l0,0L165.4,168z M130.8,199.3
		c-0.2-0.1-4-0.1-5.4-0.1c-1.6,0-4.9,0-4.9,0l-19.7-19.1l3.8-3.6c2.1-2.1,0.1-4.8,0.1-4.8l17.9-17.3l5.4,0l17.2,17.3
		c0,0-2,2.1,1.4,5.4l0,0l3,2.9L130.8,199.3z"/>
	<text transform="matrix(1 0 0 1 9.2153 82.7325)" class="st4 st6 st7">330</text>
	<text transform="matrix(1 0 0 1 116.7671 25.1924)" class="st4 st6 st7">410</text>
	<text transform="matrix(1 0 0 1 56.4336 44.5264)" class="st4 st6 st7">385</text>
	<text transform="matrix(1 0 0 1 176.1948 44.5254)" class="st4 st6 st7">385</text>
	<text transform="matrix(1 0 0 1 222.2173 82.7325)" class="st4 st6 st7">330</text>
</g>
<g id="Pitchers_mound">
	
		<ellipse transform="matrix(0.7071 -0.7071 0.7071 0.7071 -88.7986 140.5403)" class="st8" cx="125.2" cy="177.5" rx="3.8" ry="3.8"/>
</g>
<g id="Bases_and_chalk_lines-ALL">
	<g>
		<path class="st9" d="M15.6,93.6"/>
		<path class="st9" d="M125.2,204.3"/>
		<path class="st9" d="M232,94.3"/>
	</g>
	<rect x="123.2" y="176.7" class="st10" width="4" height="1.6"/>
	<rect x="98.4" y="174.6" transform="matrix(0.7073 -0.7069 0.7069 0.7073 -95.2212 122.1912)" class="st10" width="3" height="3"/>
	
		<rect x="148.9" y="174.6" transform="matrix(0.7073 -0.7069 0.7069 0.7073 -80.4458 157.8735)" class="st10" width="3" height="3"/>
	<rect x="123.7" y="149.3" transform="matrix(0.707 -0.7073 0.7073 0.707 -70.0001 132.7314)" class="st10" width="3" height="3"/>
	<polygon class="st10" points="126.7,201.9 125.2,203.4 123.7,201.9 123.7,200.4 126.7,200.4 	"/>
	<polyline class="st11" points="234.6,94.3 125.2,203.5 17.9,96.2 	"/>
</g>
</svg>
